PathFileType	4	(X/Y/Z)	Patient4_TMGait_0pt4_02_left_09.trc.trc
DataRate	CameraRate	NumFrames	NumMarkers	Units	OrigDataRate	OrigDataStartFrame	OrigNumFrames
77.777777777778	77.777777777778	5	33	mm	77.777777777778	18	       141
Frame#	Time	Sacral			L.Shoulder			Chest			R.Shoulder			Neck			R.ASIS			L.ASIS			R.Thigh.Superior			R.Thigh.Lateral			R.Thigh.Inferior			R.Patella			L.Thigh.Superior			L.Thigh.Lateral			L.Thigh.Inferior			L.Patella			L.Shank.Superior			L.Shank.Lateral			L.Shank.Inferior			R.Shank.Superior			R.Shank.Lateral			R.Shank.Inferior			R.Heel			R.Midfoot.Superior			R.Midfoot.Lateral			R.Toe			L.Heel			L.Midfoot.Lateral			L.Midfoot.Superior			L.Toe			L.Elbow			L.Wrist			R.Elbow			R.Wrist			
		X1	Y1	Z1	X2	Y2	Z2	X3	Y3	Z3	X4	Y4	Z4	X5	Y5	Z5	X6	Y6	Z6	X7	Y7	Z7	X8	Y8	Z8	X9	Y9	Z9	X10	Y10	Z10	X11	Y11	Z11	X12	Y12	Z12	X13	Y13	Z13	X14	Y14	Z14	X15	Y15	Z15	X16	Y16	Z16	X17	Y17	Z17	X18	Y18	Z18	X19	Y19	Z19	X20	Y20	Z20	X21	Y21	Z21	X22	Y22	Z22	X23	Y23	Z23	X24	Y24	Z24	X25	Y25	Z25	X26	Y26	Z26	X27	Y27	Z27	X28	Y28	Z28	X29	Y29	Z29	X30	Y30	Z30	X31	Y31	Z31	X32	Y32	Z32	X33	Y33	Z33	

18	12.288571428571	903.162860286861	1009.900246360545	525.684992159549	1068.604542197399	1428.955852331473	310.934417382575	1193.253613114771	1358.242521131653	454.586019290911	1142.796448644616	1442.035879548014	636.530743345493	1096.290441245250	1494.729941184466	461.910308825207	1143.758194209290	940.133330025610	606.945072505502	1090.881524285626	964.579396875307	336.982753074225	1156.348041390534	731.343618499270	571.603653092139	1071.584603186727	629.459279421868	642.790513445237	1128.894332140653	571.425942210614	553.467972063832	1118.572082454674	485.671331461198	559.634495826262	1167.792998405210	777.029679790427	360.607223476985	1115.816231372452	652.372100774848	283.326587626631	1218.994761755072	591.136292044938	342.837437183619	1245.173656479030	528.218495175187	337.363725429748	1229.059509208195	456.981759726661	325.468321038521	1163.893488886979	327.681759494770	272.016367548521	1253.148999482166	228.134309665095	323.193270415009	1085.803041670644	398.293346950406	568.967845175148	1012.623895274253	298.814552519021	635.563343031980	1040.672245063518	202.845261874026	567.748003487550	895.523813716898	42.565217917128	545.518710247028	1068.031987855100	96.508158470610	572.918690529188	981.782122430072	37.293105880703	617.017380360138	1189.519486431443	43.854599613722	596.474515819906	1172.868948630707	47.510577685793	360.632864407632	1245.818565331133	52.721034209761	280.064447812413	1315.636698166171	131.688974059680	299.855077601236	1449.036954727779	104.166558901141	272.480205134000	961.747067363258	1086.309216803805	217.275668265742	984.148178555927	828.063659670457	182.762445670396	1219.044871609974	1109.553519148299	760.379977277904	1447.220236298234	1081.731194388800	657.709501686851	
19	12.301428571429	903.762685685914	1009.320553004504	523.962884951689	1067.877995596023	1428.484602634254	309.211936844705	1192.972375267906	1358.101400720264	452.681634309796	1142.370525410028	1441.762481314231	634.685222867796	1095.745622684097	1494.288504500523	460.173747584864	1144.274382193523	939.884921025285	605.824713737375	1091.873420048186	963.714950060259	335.634124382888	1155.245593499868	730.562160334210	570.866838495741	1069.659668659775	629.145532235082	642.170916767805	1126.689715565527	570.573089798359	553.138401380617	1115.740260168607	484.841569308585	559.270200138786	1168.833237987967	775.780569669204	358.969191933837	1114.697130302405	650.175166565867	283.894854996801	1218.554470655795	589.274266557984	341.917166601163	1243.522732915092	525.504233169791	337.464916028603	1226.532798176186	453.893630594138	326.145348372376	1158.961830074072	325.528580257862	273.890686186071	1246.710323114654	224.856980451109	325.039792845405	1082.426065433449	397.685008565287	568.669904384641	1008.697054051239	298.760237987129	635.552507797283	1036.101621671309	202.523776025591	567.707974040400	890.318559685516	42.511629879911	545.566254906043	1062.832251207707	96.451371443251	572.975957526829	976.562003019439	37.239043544437	617.078419178605	1184.307121479353	43.810343234423	596.509355995271	1163.446536991514	46.550058129335	363.931486259215	1235.591621168204	50.204357212251	282.591552746238	1307.356404803004	127.276630410785	301.786553568144	1439.682874913852	96.732867104401	272.992505656655	959.659020897996	1086.153247622791	216.583041745639	981.992585794470	827.883464518470	181.914549963241	1221.045589917912	1108.930559591313	755.828549252521	1448.035501595433	1084.112458777392	650.153905933587	
20	12.314285714286	904.512065407692	1008.610283766859	521.989091904835	1067.264126531196	1427.893603495701	307.283670617797	1192.761382108063	1357.892131212210	450.635966841081	1141.866078212896	1441.399673005031	632.684264460837	1095.163066969030	1493.750531025078	458.251957545214	1144.919165064275	939.565257302314	604.694198428053	1093.173162614877	962.678297627366	334.230918180790	1154.412185703236	729.723580773665	570.181893494533	1067.935841347389	628.749388932122	641.481933015494	1124.785583929763	569.649452095234	552.787920217744	1113.213129665365	483.884666663540	558.853830257334	1170.174060742594	774.298377742290	357.384082573038	1113.777432230940	647.852084806479	284.529039748640	1218.218078188123	587.164378300157	341.165021580886	1241.776080624035	522.366979619838	337.784548254307	1223.750658722772	450.379654807281	326.976873925278	1153.426020379828	323.189092946863	275.742681319708	1239.226028328566	221.094793295348	327.022630320628	1079.273495902265	396.985325403075	568.304937958059	1004.923482727014	298.679471884253	635.495801156389	1031.608842176984	202.147007792294	567.634098162744	885.117168174771	42.431452102032	545.615017185942	1057.630763976977	96.381131053465	573.028966675191	971.340503414430	37.164698079595	617.132815045923	1179.094718320758	43.750796877703	596.552067432879	1152.286330184340	45.405620635275	366.977708318113	1223.834989577754	47.471030338143	285.026189001902	1297.717755096921	122.336229537849	304.016585087022	1428.986407174994	88.431717363452	274.055173979176	958.037156376712	1085.777400608245	215.605187343497	980.658984920856	827.504301850605	180.785126850486	1222.575599523674	1108.213363692266	751.395046297344	1448.252101568112	1085.579441544807	642.677278162849	
21	12.327142857143	905.391337567333	1007.805251484251	519.790478784180	1066.824058313039	1427.175635086784	305.130764328902	1192.654906665268	1357.604184558514	448.450998059659	1141.329785776556	1440.965615303996	630.515724410220	1094.585709101568	1493.126893972607	456.121287322791	1145.672023844743	939.161564341874	603.547158448981	1094.735635747036	961.506436567059	332.792324272337	1153.902377079440	728.829482605312	569.538122440167	1066.473349462827	628.259592882530	640.687401467089	1123.240478107263	568.656284222992	552.369830947284	1111.059178356197	482.789767173381	558.339323975643	1171.672981050185	772.555683911116	355.909616805186	1112.980727972092	645.491448415954	285.141356426250	1217.829342737457	584.826115687040	340.618179293773	1239.832488326311	518.926650730615	338.311015348429	1220.729118140141	446.614415561725	327.893086573802	1147.576113055412	320.724265585838	277.438313874314	1231.154247644111	217.077209269362	329.032666103284	1076.393914895796	396.184708282771	567.828955102804	1001.345702966151	298.576999989045	635.355782648709	1027.216862200369	201.717355817456	567.503374281441	879.922921227586	42.341121713302	545.665478654603	1052.433595033346	96.301565448075	573.070618557312	966.124183050260	37.078873715769	617.177500937305	1173.887495160987	43.666067182202	596.605179020772	1140.181518025619	44.133077500263	369.598497341462	1211.388924510190	44.709690893191	287.243511743967	1287.370077175501	117.216654911035	306.455158721514	1417.682069466714	79.893099579005	275.682911043255	956.908388989132	1085.172002472543	214.328947143012	980.119565885980	826.915754417726	179.377227892585	1223.628803217996	1107.412913864268	747.146212182315	1447.879480091225	1086.098675530371	635.345537441165	
22	12.340000000000	906.369814158958	1006.956316336241	517.407944011813	1066.609377921298	1426.339044380858	302.743452986559	1192.681614007063	1357.240578160148	446.132974643241	1140.815612148081	1440.495207251077	628.171798631389	1094.058806387266	1492.442650449431	453.762901902387	1146.503772977770	938.674379753244	602.365720257311	1096.491264693756	960.263616746605	331.331681294916	1153.754192213116	727.893120367415	568.901633497822	1065.329474927665	627.675302489126	639.744934995714	1122.104662084438	567.604007277443	551.829762833746	1109.343783775731	481.553950993766	557.678279007361	1173.193601409118	770.583583951222	354.581538319545	1112.253544669093	643.207126937311	285.640743401994	1217.279810669458	582.344125764382	340.285561194942	1237.660476742377	515.362491022850	338.991358875045	1217.539278362878	442.810409590272	328.804145262277	1141.723757894876	318.237005623269	278.857024956940	1222.965606251407	213.060096888880	330.952990398980	1073.830472636895	395.283962926838	567.198069317908	998.003190079042	298.469011654690	635.096514837285	1022.949132411990	201.248365341784	567.294879751120	874.739585962247	42.272536680655	545.718804936024	1047.251360990354	96.221153435312	573.094600978581	960.921376230388	36.998499242028	617.209941715303	1168.692449294538	43.542968026499	596.670601095257	1127.918100205167	42.819813937359	371.691869225623	1199.033896847126	42.115882838307	289.143387573434	1276.935686685133	112.274992674850	308.967301455233	1406.451523262470	71.725396162614	277.754909665094	956.303929154234	1084.343110041475	212.747399428057	980.344031673715	826.121769335856	177.698736163187	1224.197774013754	1106.551113080006	743.137658658841	1446.927044111086	1085.637375394665	628.234478181820	
